<svg width="96" height="96" viewBox="0 0 96 96" fill="none" xmlns="http://www.w3.org/2000/svg">
<circle cx="48" cy="48" r="43" stroke="#FBF8F3" stroke-width="10"/>
<path d="M48 4.87892C48 2.18437 50.1899 -0.0256729 52.8706 0.247745C57.503 0.720239 62.0508 1.86522 66.3688 3.65378C72.1924 6.06601 77.4839 9.60166 81.9411 14.0589C86.3983 18.5161 89.934 23.8076 92.3462 29.6312C94.1348 33.9492 95.2798 38.497 95.7523 43.1294C96.0257 45.8101 93.8156 48 91.1211 48V48C88.4265 48 86.2742 45.8069 85.9314 43.1343C85.5016 39.7843 84.6291 36.4989 83.3312 33.3654C81.4093 28.7256 78.5924 24.5098 75.0413 20.9587C71.4902 17.4076 67.2744 14.5907 62.6346 12.6688C59.5011 11.3709 56.2157 10.4984 52.8657 10.0686C50.1931 9.7258 48 7.57347 48 4.87892V4.87892Z" fill="#D8814E"/>
</svg>
