<svg width="96" height="96" viewBox="0 0 96 96" fill="none" xmlns="http://www.w3.org/2000/svg">
<circle cx="48" cy="48" r="43" stroke="#FBF8F3" stroke-width="10"/>
<path d="M48 4.87892C48 2.18437 50.1899 -0.0256729 52.8706 0.247745C57.503 0.720239 62.0508 1.86522 66.3688 3.65378C72.1924 6.06601 77.4839 9.60166 81.9411 14.0589C86.3983 18.5161 89.934 23.8076 92.3462 29.6312C94.7584 35.4548 96 41.6966 96 48C96 54.3035 94.7584 60.5452 92.3462 66.3688C89.934 72.1924 86.3983 77.4839 81.9411 81.9411C77.4839 86.3983 72.1924 89.934 66.3688 92.3462C62.0508 94.1348 57.503 95.2798 52.8706 95.7523C50.1899 96.0257 48 93.8156 48 91.1211V91.1211C48 88.4265 50.1931 86.2742 52.8657 85.9314C56.2157 85.5016 59.5011 84.6291 62.6346 83.3312C67.2744 81.4093 71.4902 78.5924 75.0413 75.0413C78.5924 71.4902 81.4093 67.2744 83.3312 62.6347C85.253 57.9949 86.2422 53.022 86.2422 48C86.2422 42.978 85.253 38.0051 83.3312 33.3654C81.4093 28.7256 78.5924 24.5098 75.0413 20.9587C71.4902 17.4076 67.2744 14.5907 62.6346 12.6688C59.5011 11.3709 56.2157 10.4984 52.8657 10.0686C50.1931 9.7258 48 7.57347 48 4.87892V4.87892Z" fill="#D8814E"/>
</svg>
