<svg width="172" height="21" viewBox="0 0 172 21" fill="none" xmlns="http://www.w3.org/2000/svg">
<path d="M6.864 20.944C11.4 20.944 13.008 18.328 13.008 14.656V4.264H9.864V5.488H9.816C8.856 4.552 7.584 4.096 6.288 4.096C3.168 4.096 0.864 6.568 0.864 10.024C0.864 13.432 3.24 15.784 6.456 15.784C7.848 15.784 9.024 15.304 9.864 14.44H9.912V15.616C9.912 17.008 8.808 18.208 6.624 18.208C5.088 18.208 3.96 17.752 2.808 17.104L2.064 19.768C3.456 20.56 5.064 20.944 6.864 20.944ZM7.032 12.952C5.352 12.952 4.056 11.776 4.056 9.928C4.056 8.152 5.28 6.928 7.032 6.928C8.712 6.928 9.984 8.128 9.984 9.904C9.984 11.68 8.76 12.952 7.032 12.952ZM26.9175 10.024C26.9175 6.592 24.6135 4.096 21.3015 4.096C17.8215 4.096 15.3495 6.544 15.3495 10.12C15.3495 13.792 17.8935 16.216 21.4935 16.216C24.1095 16.216 25.6215 15.256 26.6055 13.984L24.5655 12.088C23.9415 12.856 23.0295 13.408 21.7095 13.408C20.1255 13.408 18.9975 12.568 18.6135 11.152H26.8455C26.8695 10.96 26.9175 10.408 26.9175 10.024ZM21.2775 6.832C22.6455 6.832 23.4855 7.648 23.7975 8.896H18.6375C18.9975 7.552 20.0055 6.832 21.2775 6.832ZM34.2769 16.216C35.8129 16.216 36.9889 15.64 37.8049 14.584L37.8529 14.608V16H40.8529V4.264H37.7089V5.608L37.6609 5.632C36.8209 4.624 35.5729 4.096 34.2049 4.096C31.0609 4.096 28.6849 6.616 28.6849 10.168C28.6849 13.792 31.0609 16.216 34.2769 16.216ZM34.8769 13.384C33.1009 13.384 31.8769 12.064 31.8769 10.192C31.8769 8.176 33.1729 6.904 34.8769 6.904C36.5569 6.904 37.8529 8.296 37.8529 10.192C37.8529 12.112 36.4849 13.384 34.8769 13.384ZM43.8413 16H46.9853V10.144C46.9853 8.032 48.0413 6.904 49.4573 6.904C50.8973 6.904 51.5213 8.08 51.5213 9.952V16H54.6653V10.144C54.6653 8.032 55.7453 6.904 57.0653 6.904C58.5293 6.904 59.1053 8.08 59.1053 9.952V16H62.2493V9.208C62.2493 5.608 60.6413 4.096 58.1213 4.096C56.4413 4.096 54.9773 4.72 54.0173 5.944H53.9693C53.2733 4.672 52.0493 4.096 50.5133 4.096C49.2173 4.096 47.9453 4.672 47.0093 5.8H46.9853V4.264H43.8413V16ZM68.8168 16.216C70.4008 16.216 71.1688 15.88 71.9128 15.472L71.1208 12.952C70.5928 13.216 70.0168 13.36 69.6328 13.36C68.8888 13.36 68.6248 12.88 68.6248 11.848V6.88H71.7928V4.264H68.6248V0.111999L65.4808 0.448V4.264H64.0888V6.88H65.4808V12.304C65.4808 14.944 66.8008 16.216 68.8168 16.216ZM84.3863 10.024C84.3863 6.592 82.0823 4.096 78.7703 4.096C75.2903 4.096 72.8183 6.544 72.8183 10.12C72.8183 13.792 75.3623 16.216 78.9622 16.216C81.5783 16.216 83.0903 15.256 84.0743 13.984L82.0343 12.088C81.4103 12.856 80.4983 13.408 79.1783 13.408C77.5943 13.408 76.4663 12.568 76.0823 11.152H84.3143C84.3383 10.96 84.3863 10.408 84.3863 10.024ZM78.7463 6.832C80.1143 6.832 80.9543 7.648 81.2663 8.896H76.1063C76.4663 7.552 77.4743 6.832 78.7463 6.832ZM86.8256 16H89.9696V10.576C89.9696 8.8 91.0016 7.504 92.9456 7.504C93.1376 7.504 93.4496 7.504 93.7856 7.528V4.096H93.5456C92.1776 4.096 90.9056 4.768 90.0176 5.968H89.9696V4.264H86.8256V16ZM95.7553 16H98.8993V10.144C98.8993 8.032 99.9553 6.904 101.371 6.904C102.811 6.904 103.435 8.08 103.435 9.952V16H106.579V10.144C106.579 8.032 107.659 6.904 108.979 6.904C110.443 6.904 111.019 8.08 111.019 9.952V16H114.163V9.208C114.163 5.608 112.555 4.096 110.035 4.096C108.355 4.096 106.891 4.72 105.931 5.944H105.883C105.187 4.672 103.963 4.096 102.427 4.096C101.131 4.096 99.8593 4.672 98.9233 5.8H98.8993V4.264H95.7553V16ZM122.699 16.216C126.347 16.216 128.915 13.72 128.915 10.144C128.915 6.544 126.347 4.096 122.699 4.096C118.955 4.096 116.459 6.64 116.459 10.144C116.459 13.648 118.955 16.216 122.699 16.216ZM122.699 13.384C120.899 13.384 119.651 11.968 119.651 10.144C119.651 8.296 120.875 6.904 122.699 6.904C124.427 6.904 125.723 8.224 125.723 10.144C125.723 12.064 124.379 13.384 122.699 13.384ZM131.38 20.752H134.524V14.704L134.572 14.68C135.388 15.664 136.54 16.216 138.004 16.216C141.268 16.216 143.644 13.792 143.644 10.168C143.644 6.616 141.268 4.096 138.1 4.096C136.66 4.096 135.412 4.624 134.572 5.608H134.524V4.264H131.38V20.752ZM137.452 13.384C135.724 13.384 134.38 12.112 134.38 10.192C134.38 8.296 135.628 6.904 137.428 6.904C139.108 6.904 140.452 8.176 140.452 10.192C140.452 12.064 139.204 13.384 137.452 13.384ZM151.043 16.216C152.579 16.216 153.755 15.64 154.571 14.584L154.619 14.608V16H157.619V4.264H154.475V5.608L154.427 5.632C153.587 4.624 152.339 4.096 150.971 4.096C147.827 4.096 145.451 6.616 145.451 10.168C145.451 13.792 147.827 16.216 151.043 16.216ZM151.643 13.384C149.867 13.384 148.643 12.064 148.643 10.192C148.643 8.176 149.939 6.904 151.643 6.904C153.323 6.904 154.619 8.296 154.619 10.192C154.619 12.112 153.251 13.384 151.643 13.384ZM160.607 16H163.751V10.12C163.751 8.008 164.807 6.904 166.391 6.904C167.855 6.904 168.647 7.6 168.647 9.832V16H171.791V9.04C171.791 5.44 170.039 4.096 167.543 4.096C166.079 4.096 164.735 4.672 163.799 5.776H163.751V4.264H160.607V16Z" fill="#06784F"/>
</svg>