<svg width="104" height="16" viewBox="0 0 104 16" fill="none" xmlns="http://www.w3.org/2000/svg">
<path d="M21.884 14.4418V9.55876C21.884 8.3566 21.2386 7.26529 19.9667 7.26529C18.7139 7.26529 17.9736 8.3566 17.9736 9.55876V14.4418H15.6577V5.30471H17.8028L17.9736 6.41449C18.4671 5.48971 19.5492 5.15674 20.4414 5.15674C21.5614 5.15674 22.6814 5.60065 23.2129 6.85841C24.0481 5.56362 25.1302 5.19377 26.3451 5.19377C29.0026 5.19377 30.3125 6.78442 30.3125 9.52181V14.4418H27.9966V9.52181C27.9966 8.31956 27.484 7.3024 26.2311 7.3024C24.9783 7.3024 24.2 8.3566 24.2 9.55876V14.4418H21.884Z" fill="#1B2021"/>
<path d="M34.29 9.81996C34.29 11.5587 35.5239 12.5943 37.0615 12.5943C40.7063 12.5943 40.7063 7.06402 37.0615 7.06402C35.5239 7.06402 34.29 8.08134 34.29 9.81996ZM39.909 5.29066H42.13V14.4481H39.947L39.833 13.0568C39.3015 14.1296 37.8398 14.6474 36.7958 14.666C34.0243 14.6845 31.9741 13.0198 31.9741 9.81996C31.9741 6.67561 34.1192 5.02945 36.8528 5.04801C38.1056 5.04801 39.3015 5.62134 39.833 6.52764L39.909 5.29066Z" fill="#1B2021"/>
<path d="M44.2489 5.29115V14.4467H46.5648V5.29115H44.2489ZM46.7736 2.65034C46.7736 4.40744 44.04 4.40744 44.04 2.65034C44.04 0.893245 46.7736 0.893245 46.7736 2.65034Z" fill="#1B2021"/>
<path d="M51.144 9.87454C51.144 11.5207 52.3969 12.5564 53.8586 12.5564C55.3392 12.5564 56.5161 11.4652 56.5161 9.87454C56.5161 8.22838 55.3392 7.21106 53.8586 7.21106C52.3969 7.21106 51.144 8.28389 51.144 9.87454ZM50.9922 1.50488V6.56374C51.5427 5.62041 53.0803 5.10259 54.0674 5.10259C56.8009 5.10259 58.8321 6.73019 58.8321 9.87454C58.8321 12.8709 56.7629 14.6466 54.0104 14.6466C52.8714 14.6466 51.7135 14.2767 50.9922 13.1853L50.8403 14.4431H48.6763V1.50488H50.9922Z" fill="#1B2021"/>
<path d="M12.8955 4.51438C11.6928 2.70114 9.60142 1.5 7.22073 1.5H7.22049C3.49051 1.5 0.466797 4.44618 0.466797 8.08051V8.08075C0.466797 8.53537 0.514082 8.9792 0.604176 9.40781C6.35365 5.87617 10.9625 4.82031 12.8955 4.51438Z" fill="#40C1AC"/>
<path d="M13.0339 4.72705C7.34569 7.12393 3.61637 11.2572 2.42676 12.7108C3.65031 13.9119 5.34573 14.6561 7.21987 14.6561H7.22012C10.95 14.6561 13.9739 11.7098 13.9739 8.07559V8.07536C13.9739 6.85241 13.6303 5.70813 13.0339 4.72705Z" fill="#40C1AC"/>
<path d="M63.7939 14.6669V1.60028H65.9396V14.6669H63.7939Z" fill="#FFB81C"/>
<path d="M69.6376 4.06428C69.2416 4.06428 68.9159 3.94606 68.6605 3.70961C68.4051 3.46073 68.2773 3.15584 68.2773 2.79495C68.2773 2.40917 68.4051 2.09806 68.6605 1.86161C68.9159 1.61273 69.2416 1.48828 69.6376 1.48828C70.0463 1.48828 70.3783 1.61273 70.6338 1.86161C70.902 2.09806 71.0361 2.40917 71.0361 2.79495C71.0361 3.15584 70.902 3.46073 70.6338 3.70961C70.3783 3.94606 70.0463 4.06428 69.6376 4.06428ZM68.5647 14.6669V5.44561H70.7104V14.6669H68.5647Z" fill="#FFB81C"/>
<path d="M78.7572 5.24028C80.111 5.24028 81.2222 5.68206 82.0906 6.56562C82.9719 7.44917 83.4125 8.61273 83.4125 10.0563C83.4125 11.4998 82.9719 12.6634 82.0906 13.5469C81.2222 14.4305 80.111 14.8723 78.7572 14.8723C77.2118 14.8723 76.0495 14.3932 75.2704 13.4349L75.2513 14.6669H73.3355V1.60028H75.4812V6.43495C76.273 5.6385 77.365 5.24028 78.7572 5.24028ZM78.374 12.9683C79.2297 12.9683 79.9258 12.7007 80.4622 12.1656C80.9986 11.6181 81.2669 10.9149 81.2669 10.0563C81.2669 9.19762 80.9986 8.50073 80.4622 7.96561C79.9258 7.41806 79.2297 7.14428 78.374 7.14428C77.5311 7.14428 76.835 7.41806 76.2858 7.96561C75.7494 8.50073 75.4812 9.19762 75.4812 10.0563C75.4812 10.9149 75.7494 11.6181 76.2858 12.1656C76.835 12.7007 77.5311 12.9683 78.374 12.9683Z" fill="#FFB81C"/>
<path d="M89.6941 5.25895C91.3544 5.25895 92.6189 5.75673 93.4874 6.75228C94.3558 7.74784 94.7135 9.1105 94.5602 10.8403H86.9928C87.0822 11.5123 87.3951 12.0474 87.9316 12.4456C88.468 12.8438 89.1513 13.0429 89.9815 13.0429C90.5179 13.0429 91.0351 12.9558 91.5332 12.7816C92.0314 12.6074 92.4209 12.3772 92.7019 12.0909L94.0046 13.3229C93.5321 13.8207 92.9318 14.2127 92.2038 14.4989C91.4885 14.7852 90.7286 14.9283 89.924 14.9283C88.3658 14.9283 87.1205 14.4865 86.1882 13.6029C85.2558 12.7194 84.7897 11.5372 84.7897 10.0563C84.7897 8.62517 85.2367 7.46784 86.1307 6.58428C87.0375 5.70073 88.2253 5.25895 89.6941 5.25895ZM89.7516 7.06961C89.0108 7.06961 88.4041 7.25628 87.9316 7.62961C87.459 8.00295 87.1525 8.53184 87.012 9.21628H92.5103C92.4337 8.55673 92.1463 8.03406 91.6482 7.64828C91.1629 7.2625 90.5307 7.06961 89.7516 7.06961Z" fill="#FFB81C"/>
<path d="M101.324 5.25895C102.308 5.25895 103.106 5.5265 103.719 6.06161L102.761 7.76028C102.25 7.42428 101.72 7.25628 101.171 7.25628C100.405 7.25628 99.7918 7.51761 99.332 8.04028C98.885 8.56295 98.6615 9.27228 98.6615 10.1683V14.6669H96.5158V5.44561H98.4316L98.4507 6.86428C99.166 5.79406 100.124 5.25895 101.324 5.25895Z" fill="#FFB81C"/>
</svg>
