<svg width="96" height="96" viewBox="0 0 96 96" fill="none" xmlns="http://www.w3.org/2000/svg">
<circle cx="48" cy="48" r="43" stroke="#FBF8F3" stroke-width="10"/>
<path d="M48 4.87892C48 2.18436 50.19 -0.0256871 52.8707 0.247726C60.6429 1.04046 68.1306 3.72176 74.6674 8.08946C82.5609 13.3638 88.7132 20.8603 92.3462 29.6312C95.9792 38.402 96.9298 48.0532 95.0777 57.3643C93.2256 66.6754 88.654 75.2282 81.9411 81.9411C75.2282 88.654 66.6754 93.2256 57.3643 95.0777C48.0532 96.9298 38.402 95.9792 29.6312 92.3462C20.8603 88.7132 13.3638 82.5609 8.08946 74.6674C3.72176 68.1306 1.04046 60.6429 0.247726 52.8707C-0.0256871 50.19 2.18437 48 4.87892 48V48C7.57347 48 9.72578 50.1931 10.0686 52.8658C10.8176 58.7047 12.9079 64.3151 16.2028 69.2462C20.4049 75.5351 26.3775 80.4367 33.3654 83.3312C40.3532 86.2256 48.0424 86.9829 55.4607 85.5074C62.8789 84.0318 69.693 80.3896 75.0413 75.0413C80.3896 69.693 84.0318 62.8789 85.5074 55.4607C86.9829 48.0424 86.2256 40.3532 83.3312 33.3654C80.4367 26.3775 75.5351 20.4049 69.2462 16.2028C64.3151 12.9079 58.7047 10.8176 52.8658 10.0686C50.1931 9.72578 48 7.57347 48 4.87892V4.87892Z" fill="#D8814E"/>
</svg>
