<?xml version="1.0" encoding="utf-8"?>
<svg xmlns="http://www.w3.org/2000/svg" xmlns:xlink="http://www.w3.org/1999/xlink">

    <symbol viewBox="0 0 16 16" id="smallArrow">
        <g xmlns="http://www.w3.org/2000/svg">
            <path d="M3.64285 6.75L6.72864 9.83579C7.50969 10.6168 8.77602 10.6168 9.55707 9.83579L12.6429 6.75" stroke-width="1.25" stroke-linecap="round" stroke-linejoin="round"/>
        </g>
    </symbol>

    <symbol viewBox="0 0 16 16" id="phoneIcon">
        <g xmlns="http://www.w3.org/2000/svg">
            <path d="M12.2187 15C11.6087 15 10.7519 14.7794 9.46873 14.0625C7.90842 13.1875 6.70155 12.3797 5.14967 10.8319C3.65342 9.33656 2.9253 8.36844 1.90623 6.51406C0.754983 4.42031 0.951233 3.32281 1.17061 2.85375C1.43186 2.29312 1.81748 1.95781 2.31592 1.625C2.59903 1.43951 2.89863 1.28051 3.21092 1.15C3.24217 1.13656 3.27123 1.12375 3.29717 1.11219C3.45186 1.0425 3.68623 0.937187 3.98311 1.04969C4.18123 1.12406 4.35811 1.27625 4.63498 1.54969C5.2028 2.10969 5.97873 3.35687 6.26498 3.96937C6.45717 4.38219 6.58436 4.65469 6.58467 4.96031C6.58467 5.31812 6.40467 5.59406 6.18623 5.89187C6.1453 5.94781 6.10467 6.00125 6.0653 6.05312C5.82748 6.36562 5.7753 6.45594 5.80967 6.61719C5.87936 6.94125 6.39905 7.90594 7.25311 8.75813C8.10717 9.61031 9.04405 10.0972 9.36936 10.1666C9.53748 10.2025 9.62967 10.1481 9.95217 9.90187C9.99842 9.86656 10.0459 9.83 10.0956 9.79344C10.4287 9.54563 10.6919 9.37031 11.0412 9.37031H11.0431C11.3472 9.37031 11.6075 9.50219 12.0387 9.71969C12.6012 10.0034 13.8859 10.7694 14.4494 11.3378C14.7234 11.6141 14.8762 11.7903 14.9509 11.9881C15.0634 12.2859 14.9575 12.5194 14.8884 12.6756C14.8769 12.7016 14.864 12.73 14.8506 12.7616C14.7191 13.0733 14.5591 13.3723 14.3728 13.6547C14.0406 14.1516 13.704 14.5363 13.1422 14.7978C12.8536 14.9343 12.5379 15.0034 12.2187 15Z" />
        </g>
    </symbol>

    <symbol viewBox="0 0 24 24" id="smallTailArrow">
        <g xmlns="http://www.w3.org/2000/svg">
            <path d="M5 12H18" stroke-width="1.25" stroke-linecap="round" stroke-linejoin="round"/>
            <path d="M12 5L17.5858 10.5858C18.3668 11.3668 18.3668 12.6332 17.5858 13.4142L12 19" stroke-width="1.25" stroke-linecap="round" stroke-linejoin="round"/>
        </g>
    </symbol>

    <symbol viewBox="0 0 64 64" id="timerIcon">
        <g xmlns="http://www.w3.org/2000/svg">
            <path d="M32 29V19" stroke="#D8814E" stroke-width="3.5" stroke-linecap="round" stroke-linejoin="round"/>
            <path d="M16.5 16.5L15 15M32 11V9V11Z" stroke="#D8814E" stroke-width="3.5" stroke-linecap="round" stroke-linejoin="round"/>
            <path d="M32 38C34.2091 38 36 36.2091 36 34C36 31.7909 34.2091 30 32 30C29.7909 30 28 31.7909 28 34C28 36.2091 29.7909 38 32 38Z" stroke="#D8814E" stroke-width="3.5" stroke-miterlimit="10"/>
            <path d="M32 12C27.6488 12 23.3953 13.2903 19.7774 15.7077C16.1596 18.1251 13.3398 21.561 11.6746 25.581C10.0095 29.6009 9.57384 34.0244 10.4227 38.292C11.2716 42.5596 13.3669 46.4796 16.4436 49.5564C19.5204 52.6331 23.4404 54.7284 27.708 55.5773C31.9756 56.4262 36.3991 55.9905 40.419 54.3254C44.439 52.6602 47.8749 49.8404 50.2923 46.2225C52.7097 42.6047 54 38.3512 54 34C54 28.1652 51.6821 22.5695 47.5563 18.4437C43.4305 14.3179 37.8348 12 32 12Z" stroke="#D8814E" stroke-width="3.5" stroke-miterlimit="10"/>
        </g>
    </symbol>

    <symbol viewBox="0 0 64 64" id="likeIcon">
        <g fill="none" xmlns="http://www.w3.org/2000/svg">
            <path d="M40 57.27C40 57.27 38 58 32 58C26 58 22.75 56 20 54H12C9.87827 54 7.84344 53.1571 6.34315 51.6569C4.84285 50.1566 4 48.1217 4 46V40C4 37.8783 4.84285 35.8434 6.34315 34.3431C7.84344 32.8429 9.87827 32 12 32H15.75C16.4368 31.9962 17.1114 31.8175 17.71 31.4807C18.3086 31.1439 18.8115 30.6601 19.1712 30.075C19.1712 30.075 20.25 27.7262 23.5 22.0975C26.75 16.4688 33 8 34 6C37.625 6 39.375 8.75 38.25 11.9637C36.965 15.6375 35.2863 18.7613 34.8175 22.85C34.75 23.4475 35.21 24.35 35.8112 24.35L52 25.625" stroke="#D8814E" stroke-width="3.5" stroke-linecap="round" stroke-linejoin="round"/>
            <path d="M52 33.875L42 33.625C39.5 33.395 38 32.075 38 29.875C38 27.675 39.75 26.27 42 26.125L52 25.625C54.2 25.625 56 27.675 56 29.875V29.8962C55.9944 30.9534 55.5705 31.9654 54.8209 32.7109C54.0714 33.4565 53.0572 33.875 52 33.875ZM56 42L42 41.75C39.75 41.645 38 40.1988 38 38C38 35.7987 39.75 34.3925 42 34.25L56 34C57.0599 34.0033 58.0754 34.4258 58.8248 35.1752C59.5742 35.9246 59.9967 36.9401 60 38C59.9967 39.0599 59.5742 40.0754 58.8248 40.8248C58.0754 41.5742 57.0599 41.9967 56 42V42ZM50 58L42 57.625C39.375 57.395 38 56.2 38 54C38 51.8 39.8 50.25 42 50.25L50 50C51.06 50.003 52.0756 50.4253 52.8251 51.1749C53.5747 51.9244 53.997 52.94 54 54C53.997 55.06 53.5747 56.0756 52.8251 56.8251C52.0756 57.5747 51.06 57.997 50 58V58ZM54 50L42 49.75C39.625 49.645 38 48.2 38 46C38 43.8 39.625 42.395 42 42.25L54 42C55.06 42.003 56.0756 42.4253 56.8251 43.1749C57.5747 43.9244 57.997 44.94 58 46C57.997 47.06 57.5747 48.0756 56.8251 48.8251C56.0756 49.5747 55.06 49.997 54 50Z" stroke="#D8814E" stroke-width="3.5" stroke-miterlimit="10"/>
        </g>
    </symbol>

    <symbol viewBox="0 0 64 64" id="pencilIcon">
        <g fill="none" xmlns="http://www.w3.org/2000/svg">
            <path d="M45.5163 15.6563L10.875 50.375L8 56L13.6237 53.125L48.3438 18.4838L45.5163 15.6563ZM52.5863 8.5863L49.7588 11.4138L52.5863 14.2425L55.4137 11.4138C55.7885 11.0388 55.9991 10.5303 55.9991 10C55.9991 9.46984 55.7885 8.96133 55.4137 8.5863V8.5863C55.0387 8.21151 54.5302 8.00098 54 8.00098C53.4698 8.00098 52.9613 8.21151 52.5863 8.5863V8.5863Z" stroke="#D8814E" stroke-width="3.5" stroke-linecap="round" stroke-linejoin="round"/>
        </g>
    </symbol>

    <symbol viewBox="0 0 64 64" id="triangleRulerIcon">
        <g fill="none" xmlns="http://www.w3.org/2000/svg">
            <path d="M22.3654 19.4667H33.0707M57.3334 54.6667H30.6667H57.3334ZM51.624 6.66675H28L6.66669 54.6667H30.216L51.624 6.66675ZM13.2787 39.8427H23.9827H13.2787ZM17.6867 29.9601H28.3907H17.6867Z" stroke="#D8814E" stroke-width="3.5" stroke-linecap="round" stroke-linejoin="round"/>
        </g>
    </symbol>

    <symbol viewBox="0 0 64 64" id="fiveYearsGuarantee">
        <g fill="none" xmlns="http://www.w3.org/2000/svg">
            <path d="M52 8H12C9.79086 8 8 9.79086 8 12V52C8 54.2091 9.79086 56 12 56H52C54.2091 56 56 54.2091 56 52V12C56 9.79086 54.2091 8 52 8Z" stroke="#D8814E" stroke-width="3.5" stroke-linecap="round" stroke-linejoin="round"/>
            <path d="M38.6667 18.6799H30.6667C28.4575 18.6799 26.6667 20.4708 26.6667 22.6799V28.0453C26.6667 27.9999 29.3334 26.6666 33.3334 26.6666C37.3334 26.6666 38.6667 29.3786 38.6667 34.6666C38.6667 39.9546 37.3334 43.9999 32 43.9999C28 43.9999 26.6667 41.3333 26.6667 38.6773" stroke="#D8814E" stroke-width="3.5" stroke-linecap="round" stroke-linejoin="round"/>
        </g>
    </symbol>

    <symbol viewBox="0 0 64 64" id="rightPrice">
        <g fill="none" xmlns="http://www.w3.org/2000/svg">
            <path d="M54.4062 6H39.0437C38.5661 5.99965 38.1077 6.1884 37.7687 6.525L7.05623 37.2375C6.38375 37.9133 6.00623 38.8279 6.00623 39.7813C6.00623 40.7346 6.38375 41.6492 7.05623 42.325L21.6812 56.95C22.357 57.6225 23.2716 58 24.225 58C25.1784 58 26.0929 57.6225 26.7687 56.95L57.4687 26.25C57.8053 25.9111 57.9941 25.4527 57.9937 24.975V9.6C57.9961 9.12765 57.9049 8.65951 57.7256 8.22251C57.5463 7.78551 57.2823 7.38829 56.9489 7.0537C56.6155 6.71911 56.2192 6.45376 55.7828 6.27293C55.3464 6.09209 54.8786 5.99934 54.4062 6V6Z" stroke="#D8814E" stroke-width="3.5" stroke-linecap="round" stroke-linejoin="round"/>
            <path d="M48 20C47.2089 20 46.4355 19.7654 45.7777 19.3259C45.1199 18.8864 44.6072 18.2616 44.3045 17.5307C44.0017 16.7998 43.9225 15.9956 44.0769 15.2196C44.2312 14.4437 44.6122 13.731 45.1716 13.1716C45.731 12.6122 46.4437 12.2312 47.2196 12.0769C47.9956 11.9225 48.7998 12.0017 49.5307 12.3045C50.2616 12.6072 50.8864 13.1199 51.3259 13.7777C51.7654 14.4355 52 15.2089 52 16C52 17.0609 51.5786 18.0783 50.8284 18.8284C50.0783 19.5786 49.0609 20 48 20Z" fill="#D8814E"/>
        </g>
    </symbol>

    <symbol viewBox="0 0 24 24" id="facebookIcon">
        <g xmlns="http://www.w3.org/2000/svg">
            <path d="M13.397 20.9972V12.8012H16.162L16.573 9.59217H13.397V7.54817C13.397 6.62217 13.655 5.98817 14.984 5.98817H16.668V3.12717C15.8486 3.03936 15.025 2.99696 14.201 3.00017C11.757 3.00017 10.079 4.49217 10.079 7.23117V9.58617H7.33197V12.7952H10.085V20.9972H13.397Z" />
        </g>
    </symbol>

    <symbol viewBox="0 0 24 24" id="instagramIcon">
        <g xmlns="http://www.w3.org/2000/svg">
            <path d="M12 7.19249C9.33983 7.19249 7.19296 9.33937 7.19296 11.9995C7.19296 14.6597 9.33983 16.8066 12 16.8066C14.6601 16.8066 16.807 14.6597 16.807 11.9995C16.807 9.33937 14.6601 7.19249 12 7.19249ZM12 15.1237C10.2797 15.1237 8.87577 13.7198 8.87577 11.9995C8.87577 10.2792 10.2797 8.87531 12 8.87531C13.7203 8.87531 15.1242 10.2792 15.1242 11.9995C15.1242 13.7198 13.7203 15.1237 12 15.1237ZM17.0039 5.87531C16.3828 5.87531 15.8812 6.37687 15.8812 6.99796C15.8812 7.61906 16.3828 8.12062 17.0039 8.12062C17.625 8.12062 18.1266 7.6214 18.1266 6.99796C18.1267 6.85048 18.0978 6.70441 18.0415 6.56812C17.9851 6.43183 17.9024 6.308 17.7981 6.20371C17.6939 6.09943 17.57 6.01674 17.4337 5.96039C17.2974 5.90403 17.1514 5.87512 17.0039 5.87531ZM21.3703 11.9995C21.3703 10.7058 21.382 9.42374 21.3094 8.13234C21.2367 6.63234 20.8945 5.30109 19.7976 4.20421C18.6984 3.10499 17.3695 2.76515 15.8695 2.69249C14.5758 2.61984 13.2937 2.63156 12.0023 2.63156C10.7086 2.63156 9.42655 2.61984 8.13515 2.69249C6.63515 2.76515 5.3039 3.10734 4.20702 4.20421C3.1078 5.30343 2.76796 6.63234 2.6953 8.13234C2.62265 9.42609 2.63436 10.7081 2.63436 11.9995C2.63436 13.2909 2.62265 14.5753 2.6953 15.8667C2.76796 17.3667 3.11015 18.698 4.20702 19.7948C5.30624 20.8941 6.63515 21.2339 8.13515 21.3066C9.42889 21.3792 10.7109 21.3675 12.0023 21.3675C13.2961 21.3675 14.5781 21.3792 15.8695 21.3066C17.3695 21.2339 18.7008 20.8917 19.7976 19.7948C20.8969 18.6956 21.2367 17.3667 21.3094 15.8667C21.3844 14.5753 21.3703 13.2933 21.3703 11.9995ZM19.3078 17.5261C19.1367 17.9527 18.9305 18.2714 18.6 18.5995C18.2695 18.93 17.9531 19.1362 17.5266 19.3073C16.2937 19.7972 13.3664 19.687 12 19.687C10.6336 19.687 7.7039 19.7972 6.47108 19.3097C6.04452 19.1386 5.72577 18.9323 5.39765 18.6019C5.06718 18.2714 4.86093 17.955 4.68983 17.5284C4.20233 16.2933 4.31249 13.3659 4.31249 11.9995C4.31249 10.6331 4.20233 7.70343 4.68983 6.47062C4.86093 6.04406 5.06718 5.72531 5.39765 5.39718C5.72811 5.06906 6.04452 4.86046 6.47108 4.68937C7.7039 4.20187 10.6336 4.31203 12 4.31203C13.3664 4.31203 16.2961 4.20187 17.5289 4.68937C17.9555 4.86046 18.2742 5.06671 18.6023 5.39718C18.9328 5.72765 19.1391 6.04406 19.3101 6.47062C19.7976 7.70343 19.6875 10.6331 19.6875 11.9995C19.6875 13.3659 19.7976 16.2933 19.3078 17.5261Z" />
        </g>
    </symbol>

    <symbol viewBox="0 0 24 24" id="closeIcon">
        <g xmlns="http://www.w3.org/2000/svg">
            <path d="M6 6L18 18M6 18L18 6L6 18Z" stroke-width="1.5" stroke-linecap="round" stroke-linejoin="round"/>
        </g>
    </symbol>

    <symbol viewBox="0 0 32 32" id="messageIcon">
        <g fill="none" xmlns="http://www.w3.org/2000/svg">
            <path d="M28 15.3334C28.0046 17.0932 27.5934 18.8292 26.8 20.4C25.8592 22.2824 24.413 23.8656 22.6233 24.9724C20.8335 26.0792 18.771 26.6659 16.6667 26.6667C14.9068 26.6713 13.1708 26.2601 11.6 25.4667L4 28L6.53333 20.4C5.73991 18.8292 5.32875 17.0932 5.33333 15.3334C5.33415 13.229 5.92082 11.1665 7.02763 9.37677C8.13444 7.58704 9.71767 6.14079 11.6 5.20004C13.1708 4.40661 14.9068 3.99545 16.6667 4.00004H17.3333C20.1125 4.15336 22.7374 5.32639 24.7055 7.29452C26.6737 9.26265 27.8467 11.8876 28 14.6667V15.3334Z" stroke="white" stroke-width="1.5" stroke-linecap="round" stroke-linejoin="round"/>
        </g>
    </symbol>

    <symbol viewBox="0 0 32 32" id="viberMessengerIcon">
        <g xmlns="http://www.w3.org/2000/svg">
            <path fill-rule="evenodd" clip-rule="evenodd" d="M15.3683 2.66977C13.3391 2.69561 8.97625 3.04733 6.53605 5.40852C4.72091 7.30548 4.08715 10.1101 4.01287 13.5781C3.95124 17.0336 3.87696 23.5229 9.80756 25.2899V27.9811C9.80756 27.9811 9.77042 29.058 10.4453 29.2788C11.1342 29.5088 11.5773 28.9793 12.1586 28.2845C12.2787 28.1409 12.4048 27.9902 12.5401 27.8378L14.0139 26.08C18.0717 26.4359 21.1796 25.6158 21.5376 25.4941C21.6101 25.4696 21.7123 25.4425 21.8388 25.4089C23.148 25.0609 27.0656 24.0197 27.7566 18.1013C28.5342 11.3986 27.3781 7.17546 25.2911 5.26517H25.2785C24.6487 4.65341 22.1176 2.70811 16.4628 2.68644C16.4628 2.68644 16.0432 2.65727 15.3683 2.66977ZM11.6519 8.20895C11.4283 8.17448 11.2001 8.22183 11.0055 8.34313H10.9889C10.5371 8.62246 10.1301 8.9755 9.78306 9.38913C9.49463 9.74085 9.33817 10.0967 9.29708 10.4393C9.27258 10.6435 9.28917 10.8477 9.34686 11.0427L9.36741 11.056C9.69219 12.0629 10.1165 13.0313 10.6349 13.9432C11.3027 15.2241 12.1244 16.4088 13.0799 17.4679L13.1083 17.5112L13.1534 17.5462L13.1818 17.5812L13.215 17.6112C14.2227 18.6219 15.3487 19.4926 16.5655 20.2024C17.9563 21.0009 18.8003 21.3785 19.3068 21.5351V21.5435C19.4554 21.591 19.5905 21.6127 19.7264 21.6127C20.1581 21.5793 20.5668 21.3944 20.8872 21.0876C21.2776 20.7214 21.6086 20.2904 21.8671 19.8115V19.8032C22.1097 19.3215 22.0275 18.8656 21.6775 18.5572C20.9764 17.9108 20.2183 17.3367 19.4135 16.8428C18.8745 16.5344 18.3269 16.7211 18.1049 17.0336L17.6315 17.6629C17.3889 17.9754 16.948 17.9321 16.948 17.9321L16.9353 17.9404C13.6472 17.0545 12.7701 13.5431 12.7701 13.5431C12.7701 13.5431 12.729 13.0655 13.0332 12.8221L13.6259 12.3187C13.9096 12.0754 14.1071 11.4986 13.8029 10.9294C13.3378 10.0794 12.7947 9.27957 12.1814 8.5415C12.0473 8.3675 11.8592 8.24911 11.6504 8.20728L11.6519 8.20895ZM16.8626 11.6778C16.4343 11.6645 16.4509 10.9827 16.8832 10.996L16.8958 10.9969C18.2621 11.0744 19.0318 11.9128 19.1061 13.4014C19.1086 13.4459 19.1028 13.4905 19.0888 13.5327C19.0748 13.5748 19.053 13.6135 19.0247 13.6466C18.9964 13.6798 18.9621 13.7066 18.9238 13.7256C18.8856 13.7446 18.8441 13.7554 18.8018 13.7573H18.7892C18.707 13.7569 18.6282 13.7225 18.5698 13.6616C18.5113 13.6007 18.4777 13.5181 18.4763 13.4314C18.4099 12.2896 17.9042 11.7345 16.8626 11.6778ZM16.364 9.1991C15.9444 9.1991 15.9444 9.86753 16.368 9.86753C16.8897 9.87646 17.4047 9.99375 17.8835 10.2127C18.3623 10.4316 18.7954 10.748 19.1582 11.1436C19.4892 11.5286 19.7435 11.9798 19.9061 12.4705C20.0688 12.9611 20.1363 13.4811 20.1049 13.9998C20.1064 14.0876 20.1403 14.1713 20.1996 14.233C20.2588 14.2947 20.3386 14.3295 20.4218 14.3299L20.4344 14.3474C20.5183 14.3467 20.5985 14.3113 20.6578 14.2488C20.7171 14.1862 20.7507 14.1016 20.7513 14.0132C20.7798 12.6888 20.3894 11.5778 19.6237 10.6877C18.854 9.79752 17.7801 9.29828 16.4091 9.1991H16.364ZM15.6963 7.46881C15.7347 7.45243 15.7758 7.44422 15.8172 7.44466C17.6813 7.44466 19.2665 8.1081 20.5174 9.39746C21.1593 10.0969 21.6595 10.9266 21.9879 11.8363C22.3162 12.746 22.4657 13.7166 22.4274 14.6891C22.4265 14.7771 22.3928 14.8612 22.3334 14.923C22.274 14.9848 22.1939 15.0194 22.1105 15.0191V15.0325C21.9335 15.0325 21.7936 14.8808 21.7936 14.6983C21.7723 12.6321 21.2128 11.0519 20.0646 9.87587C19.5022 9.30026 18.8374 8.84778 18.1084 8.54452C17.3794 8.24126 16.6007 8.09322 15.8172 8.10893C15.6441 8.10893 15.5003 7.96141 15.5003 7.77471C15.5004 7.73105 15.5087 7.68784 15.5247 7.64757C15.5407 7.60731 15.5641 7.57078 15.5936 7.5401C15.623 7.50942 15.658 7.48519 15.6963 7.46881Z" fill="white" />
        </g>
    </symbol>

    <symbol viewBox="0 0 32 32" id="whatsupMessengerIcon">
        <g xmlns="http://www.w3.org/2000/svg">
            <path d="M26.88 9.12C23.04 3.2 15.2 1.44 9.12001 5.12C3.20001 8.8 1.28001 16.8 5.12001 22.72L5.44001 23.2L4.16001 28L8.96001 26.72L9.44001 27.04C11.52 28.16 13.76 28.8 16 28.8C18.4 28.8 20.8 28.16 22.88 26.88C28.8 23.04 30.56 15.2 26.88 9.12ZM23.52 21.44C22.88 22.4 22.08 23.04 20.96 23.2C20.32 23.2 19.52 23.52 16.32 22.24C13.6 20.96 11.36 18.88 9.76001 16.48C8.80001 15.36 8.32001 13.92 8.16001 12.48C8.16001 11.2 8.64001 10.08 9.44001 9.28C9.76001 8.96 10.08 8.8 10.4 8.8H11.2C11.52 8.8 11.84 8.8 12 9.44C12.32 10.24 13.12 12.16 13.12 12.32C13.28 12.48 13.28 12.8 13.12 12.96C13.28 13.28 13.12 13.6 12.96 13.76C12.8 13.92 12.64 14.24 12.48 14.4C12.16 14.56 12 14.88 12.16 15.2C12.8 16.16 13.6 17.12 14.4 17.92C15.36 18.72 16.32 19.36 17.44 19.84C17.76 20 18.08 20 18.24 19.68C18.4 19.36 19.2 18.56 19.52 18.24C19.84 17.92 20 17.92 20.32 18.08L22.88 19.36C23.2 19.52 23.52 19.68 23.68 19.84C23.84 20.32 23.84 20.96 23.52 21.44Z" fill="white"/>
        </g>
    </symbol>

    <symbol viewBox="0 0 32 32" id="facebookMessengerIcon">
        <g xmlns="http://www.w3.org/2000/svg">
            <path d="M16 2.66669C23.512 2.66669 29.3333 8.16935 29.3333 15.6C29.3333 23.0307 23.512 28.5334 16 28.5334C14.6961 28.5367 13.3978 28.3645 12.14 28.0214C11.9037 27.9564 11.6523 27.9748 11.428 28.0734L8.78263 29.2414C8.6228 29.312 8.44807 29.3423 8.27379 29.3296C8.09951 29.3168 7.93103 29.2615 7.78316 29.1684C7.63528 29.0753 7.51254 28.9473 7.42573 28.7956C7.33892 28.644 7.29069 28.4733 7.28529 28.2987L7.21196 25.9254C7.20715 25.781 7.17299 25.6392 7.11155 25.5086C7.05012 25.3779 6.9627 25.2611 6.85463 25.1654C4.25996 22.8467 2.66663 19.4894 2.66663 15.6C2.66663 8.16935 8.48929 2.66669 16 2.66669ZM7.99329 19.3827C7.61729 19.9787 8.35063 20.6507 8.91196 20.224L13.1186 17.032C13.2575 16.9272 13.4267 16.8705 13.6006 16.8705C13.7746 16.8705 13.9438 16.9272 14.0826 17.032L17.1986 19.3654C17.4197 19.5312 17.6726 19.6494 17.9416 19.7125C18.2106 19.7757 18.4898 19.7824 18.7615 19.7323C19.0332 19.6822 19.2916 19.5763 19.5203 19.4214C19.7491 19.2664 19.9433 19.0658 20.0906 18.832L24.0066 12.6187C24.3826 12.0214 23.6493 11.3494 23.088 11.7747L18.8813 14.9694C18.7425 15.0742 18.5732 15.1309 18.3993 15.1309C18.2253 15.1309 18.0561 15.0742 17.9173 14.9694L14.8013 12.636C14.5803 12.4702 14.3273 12.352 14.0583 12.2889C13.7893 12.2257 13.5102 12.219 13.2384 12.2691C12.9667 12.3192 12.7083 12.4251 12.4796 12.58C12.2508 12.735 12.0566 12.9356 11.9093 13.1694L7.99329 19.3827Z" fill="white"/>
        </g>
    </symbol>

    <symbol viewBox="0 0 32 32" id="justMessengerIcon">
        <g xmlns="http://www.w3.org/2000/svg">
            <path d="M27.9999 19.5269C28.0481 19.4575 28.0943 19.3856 28.1418 19.3181C29.3506 17.5216 29.9974 15.406 29.9999 13.2406C30.0199 7.03438 24.7837 2 18.3087 2C12.6612 2 7.94994 5.84312 6.84619 10.945C6.68062 11.7011 6.5968 12.4728 6.59619 13.2469C6.59619 19.4594 11.6312 24.6287 18.1062 24.6287C19.1356 24.6287 20.5224 24.3194 21.2831 24.1106C22.0437 23.9019 22.7974 23.6262 22.9924 23.5519C23.1874 23.4775 23.4924 23.4013 23.7356 23.4713L28.5743 24.87C28.6169 24.8826 28.662 24.8836 28.705 24.873C28.7481 24.8623 28.7876 24.8404 28.8194 24.8095C28.8512 24.7786 28.8742 24.7398 28.8861 24.697C28.8979 24.6543 28.8982 24.6091 28.8868 24.5662L27.7793 20.3481C27.7024 20.0356 27.6924 19.9769 27.9999 19.5269Z" fill="white"/>
            <path d="M19.5337 25.9613C19.0527 26.0382 18.5669 26.081 18.0799 26.0894C15.4281 26.0894 12.9237 25.3894 10.8924 24.0769C9.5931 23.2794 8.46521 22.2316 7.57432 20.9944C5.94432 18.8338 5.05557 16.0875 5.05557 13.2138C5.05557 13.0182 5.06245 12.83 5.06932 12.6413C5.0718 12.5856 5.05707 12.5305 5.02714 12.4835C4.99722 12.4365 4.95354 12.3999 4.90205 12.3786C4.85057 12.3573 4.79377 12.3523 4.73938 12.3645C4.68499 12.3766 4.63565 12.4051 4.59807 12.4463C3.10154 14.0837 2.19685 16.1754 2.0285 18.3873C1.86015 20.5992 2.43785 22.8037 3.66932 24.6488C3.8237 24.8844 3.9112 25.0663 3.88432 25.1875L3.0037 29.7038C2.99557 29.7467 2.99885 29.791 3.0132 29.8323C3.02755 29.8736 3.05247 29.9104 3.08548 29.9391C3.11849 29.9677 3.15844 29.9872 3.20133 29.9956C3.24423 30.004 3.28857 30.001 3.32995 29.9869L7.57995 28.4719C7.70883 28.4209 7.8465 28.3959 7.98507 28.3983C8.12364 28.4007 8.26038 28.4303 8.38745 28.4857C9.65932 28.9857 11.0662 29.2932 12.4731 29.2932C15.1811 29.302 17.7896 28.2732 19.7624 26.4182C19.8032 26.3784 19.8302 26.3268 19.8397 26.2707C19.8491 26.2146 19.8405 26.157 19.815 26.1061C19.7896 26.0553 19.7486 26.0138 19.698 25.9878C19.6474 25.9617 19.5899 25.9525 19.5337 25.9613Z" fill="white"/>
        </g>
    </symbol>
    
</svg>