<svg width="36" height="36" viewBox="0 0 36 36" fill="none" xmlns="http://www.w3.org/2000/svg">
<path d="M14.3903 12.1666L10.4625 21.288H7.90008L5.96719 14.0082C5.85 13.5609 5.74816 13.3963 5.39156 13.2072C4.80867 12.8989 3.84609 12.6107 3 12.4313L3.05707 12.1666H7.18254C7.70754 12.1666 8.18027 12.5068 8.30051 13.0961L9.3218 18.3748L11.8432 12.1666H14.3903ZM17.8543 12.1666L15.8501 21.288H13.4257L15.4302 12.1666H17.8545H17.8543ZM24.4304 18.3099C24.4405 15.903 21.0116 15.7694 21.034 14.694C21.0422 14.367 21.3621 14.019 22.0624 13.93C22.4093 13.8863 23.3677 13.8515 24.4532 14.3384L24.8779 12.4029C24.2946 12.1976 23.544 12 22.6104 12C20.2139 12 18.5282 13.2391 18.5147 15.0149C18.499 16.3284 19.7188 17.0604 20.6361 17.4979C21.581 17.9446 21.8979 18.2317 21.8936 18.631C21.8868 19.243 21.1389 19.514 20.4436 19.524C19.2244 19.5428 18.5176 19.2032 17.9538 18.9476L17.5138 20.9471C18.081 21.2002 19.1263 21.42 20.209 21.4312C22.7566 21.4312 24.4229 20.2063 24.4304 18.31V18.3099ZM30.7586 21.288H33L31.0418 12.1666H28.9738C28.5074 12.1666 28.1154 12.4301 27.9415 12.8352L24.304 21.288H26.8496L27.3546 19.9255H30.4648L30.7587 21.288H30.7586ZM28.0527 18.0563L29.3291 14.6309L30.0623 18.0563H28.0526H28.0527ZM20.957 23.7988H19.9719V24.6912H21.0737V24.9595H19.64V22.4838H21.0172V22.7521H19.9719V23.5343H20.9569V23.799L20.957 23.7988ZM21.5827 22.3516H21.9145V24.9594H21.5827V22.3516ZM22.752 24.1292C22.7595 24.5665 23.0426 24.7464 23.3782 24.7464C23.6161 24.7464 23.7632 24.706 23.8841 24.6547L23.9443 24.8862C23.8274 24.9375 23.6237 24.9999 23.333 24.9999C22.7709 24.9999 22.4352 24.6363 22.4352 24.0999C22.4352 23.5638 22.7595 23.1449 23.2916 23.1449C23.8916 23.1449 24.0463 23.6519 24.0463 23.9788C24.0463 24.0448 24.0424 24.0925 24.0348 24.1294H22.752V24.1292ZM23.7254 23.8979C23.7293 23.696 23.6387 23.3763 23.2651 23.3763C22.9255 23.3763 22.7821 23.6738 22.7556 23.8979H23.7254ZM25.8529 24.897C25.7661 24.9375 25.5736 25 25.3284 25C24.7775 25 24.4191 24.6363 24.4191 24.0926C24.4191 23.5453 24.8038 23.145 25.4 23.145C25.5962 23.145 25.7698 23.1925 25.8604 23.2405L25.7851 23.4865C25.7055 23.4461 25.5811 23.4019 25.4 23.4019C24.9811 23.4019 24.7549 23.7068 24.7549 24.0744C24.7549 24.4856 25.0266 24.7391 25.3888 24.7391C25.5775 24.7391 25.7019 24.6951 25.7962 24.6547L25.8529 24.897ZM26.7843 22.7555V23.1816H27.2596V23.4275H26.7843V24.3864C26.7843 24.607 26.8485 24.7317 27.0333 24.7317C27.1238 24.7317 27.1767 24.7245 27.2258 24.7096L27.2409 24.956C27.1767 24.9779 27.0749 24.9999 26.9466 24.9999C26.7918 24.9999 26.6672 24.9484 26.5881 24.8641C26.4975 24.7648 26.4598 24.607 26.4598 24.3976V23.4275H26.1766V23.1816H26.4598V22.8511L26.7844 22.7556L26.7843 22.7555ZM27.7233 23.7364C27.7233 23.5269 27.7193 23.347 27.7082 23.1816H27.9988L28.014 23.5341H28.025C28.1082 23.2956 28.3118 23.1449 28.5343 23.1449C28.5684 23.1449 28.5949 23.1486 28.6252 23.1522V23.4572C28.5912 23.4497 28.5573 23.4497 28.5117 23.4497C28.278 23.4497 28.1118 23.6186 28.0666 23.8613C28.0589 23.9111 28.0551 23.9615 28.0553 24.0119V24.9596H27.7233V23.7364ZM30.666 24.0558C30.666 24.7133 30.1942 24.9999 29.7566 24.9999C29.2659 24.9999 28.8812 24.6472 28.8812 24.0853C28.8812 23.4938 29.2849 23.145 29.7868 23.145C30.3112 23.145 30.666 23.5157 30.666 24.0559V24.0558ZM29.2207 24.0743C29.2207 24.4636 29.4471 24.7576 29.7716 24.7576C30.0887 24.7576 30.3263 24.4671 30.3263 24.0668C30.3263 23.7657 30.1716 23.3872 29.7791 23.3872C29.3906 23.3872 29.2207 23.74 29.2207 24.0743ZM31.1748 23.6628C31.1748 23.4756 31.1708 23.3285 31.1596 23.1817H31.4539L31.4728 23.4756H31.4803C31.5709 23.3102 31.7822 23.145 32.0841 23.145C32.3367 23.145 32.7293 23.2919 32.7293 23.9014V24.9595H32.3973V23.9346C32.3973 23.6483 32.2879 23.4093 31.9747 23.4093C31.7596 23.4093 31.5896 23.56 31.5295 23.7399C31.5143 23.7804 31.5068 23.8354 31.5068 23.8906V24.9595H31.1748V23.6628Z" fill="#0170BA"/>
</svg>
